<svg width="20" height="20" viewBox="0 0 20 20" fill="none" xmlns="http://www.w3.org/2000/svg">
<path d="M11.9585 1.66663H8.0418C7.17513 1.66663 6.4668 2.36663 6.4668 3.23329V4.01663C6.4668 4.88329 7.1668 5.58329 8.03346 5.58329H11.9585C12.8251 5.58329 13.5251 4.88329 13.5251 4.01663V3.23329C13.5335 2.36663 12.8251 1.66663 11.9585 1.66663Z" fill="#170006"/>
<path d="M14.3667 4.01665C14.3667 5.34165 13.2834 6.42498 11.9584 6.42498H8.0417C6.7167 6.42498 5.63337 5.34165 5.63337 4.01665C5.63337 3.54998 5.13337 3.25832 4.7167 3.47498C3.5417 4.09998 2.7417 5.34165 2.7417 6.76665V14.6083C2.7417 16.6583 4.4167 18.3333 6.4667 18.3333H13.5334C15.5834 18.3333 17.2584 16.6583 17.2584 14.6083V6.76665C17.2584 5.34165 16.4584 4.09998 15.2834 3.47498C14.8667 3.25832 14.3667 3.54998 14.3667 4.01665ZM10.3167 14.125H6.6667C6.32503 14.125 6.0417 13.8417 6.0417 13.5C6.0417 13.1583 6.32503 12.875 6.6667 12.875H10.3167C10.6584 12.875 10.9417 13.1583 10.9417 13.5C10.9417 13.8417 10.6584 14.125 10.3167 14.125ZM12.5 10.7917H6.6667C6.32503 10.7917 6.0417 10.5083 6.0417 10.1667C6.0417 9.82498 6.32503 9.54165 6.6667 9.54165H12.5C12.8417 9.54165 13.125 9.82498 13.125 10.1667C13.125 10.5083 12.8417 10.7917 12.5 10.7917Z" fill="#170006"/>
</svg>
