<svg width="22" height="22" viewBox="0 0 22 22" fill="none" xmlns="http://www.w3.org/2000/svg">
<path d="M13.1541 1.83333H8.84578C7.89245 1.83333 7.11328 2.60333 7.11328 3.55666V4.41833C7.11328 5.37166 7.88328 6.14166 8.83661 6.14166H13.1541C14.1074 6.14166 14.8774 5.37166 14.8774 4.41833V3.55666C14.8866 2.60333 14.1074 1.83333 13.1541 1.83333Z" fill="white"/>
<path d="M15.8034 4.41833C15.8034 5.87583 14.6117 7.0675 13.1542 7.0675H8.84587C7.38837 7.0675 6.1967 5.87583 6.1967 4.41833C6.1967 3.905 5.6467 3.58416 5.18837 3.8225C3.89587 4.51 3.01587 5.87583 3.01587 7.44333V16.0692C3.01587 18.3242 4.85837 20.1667 7.11337 20.1667H14.8867C17.1417 20.1667 18.9842 18.3242 18.9842 16.0692V7.44333C18.9842 5.87583 18.1042 4.51 16.8117 3.8225C16.3534 3.58416 15.8034 3.905 15.8034 4.41833ZM11.3484 15.5375H7.33337C6.95754 15.5375 6.64587 15.2258 6.64587 14.85C6.64587 14.4742 6.95754 14.1625 7.33337 14.1625H11.3484C11.7242 14.1625 12.0359 14.4742 12.0359 14.85C12.0359 15.2258 11.7242 15.5375 11.3484 15.5375ZM13.75 11.8708H7.33337C6.95754 11.8708 6.64587 11.5592 6.64587 11.1833C6.64587 10.8075 6.95754 10.4958 7.33337 10.4958H13.75C14.1259 10.4958 14.4375 10.8075 14.4375 11.1833C14.4375 11.5592 14.1259 11.8708 13.75 11.8708Z" fill="white"/>
</svg>
